<svg width="167" height="162" version="1.1" xmlns="http://www.w3.org/2000/svg" desc="Created with imagetracer.js version 1.2.6" ><path fill="rgb(247,250,253)" stroke="rgb(247,250,253)" stroke-width="1" opacity="0.9568627450980393" d="M 21.5 4 L 20.5 6 L 21.5 4 Z " /><path fill="rgb(247,250,253)" stroke="rgb(247,250,253)" stroke-width="1" opacity="0.9568627450980393" d="M 18.5 6 L 17.5 8 L 18.5 6 Z " /><path fill="rgb(247,250,253)" stroke="rgb(247,250,253)" stroke-width="1" opacity="0.9568627450980393" d="M 149.5 6 L 150.5 8 L 149.5 6 Z " /><path fill="rgb(247,250,253)" stroke="rgb(247,250,253)" stroke-width="1" opacity="0.9568627450980393" d="M 15.5 8 L 10.5 14 L 15.5 8 Z " /><path fill="rgb(247,250,253)" stroke="rgb(247,250,253)" stroke-width="1" opacity="0.9568627450980393" d="M 153.5 9 L 158.5 15 L 153.5 9 Z " /><path fill="rgb(247,250,253)" stroke="rgb(247,250,253)" stroke-width="1" opacity="0.9568627450980393" d="M 8.5 16 L 7.5 18 L 8.5 16 Z " /><path fill="rgb(247,250,253)" stroke="rgb(247,250,253)" stroke-width="1" opacity="0.9568627450980393" d="M 159.5 16 L 160.5 18 L 159.5 16 Z " /><path fill="rgb(247,250,253)" stroke="rgb(247,250,253)" stroke-width="1" opacity="0.9568627450980393" d="M 161.5 19 L 162.5 21 L 161.5 19 Z " /><path fill="rgb(247,250,253)" stroke="rgb(247,250,253)" stroke-width="1" opacity="0.9568627450980393" d="M 81.5 31 Q 109.1 30.4 120 46.5 L 126 56.5 L 126 59 L 112.5 63 L 108 63 L 103.5 55 Q 97.1 46.9 80.5 49 Q 70.3 51.8 65 59.5 L 61 67.5 L 59 82.5 L 60 83.5 L 61 94.5 Q 64.2 103.8 71.5 109 L 82.5 113 L 90.5 113 Q 101.6 110.6 107 102.5 L 109.5 98 L 121.5 101 L 126 103.5 Q 122.9 113.9 115.5 120 L 99.5 129 L 94.5 130 L 77.5 130 Q 61 126.5 52 115.5 Q 39.1 101.4 41 72.5 L 43 63.5 L 48 51.5 L 58.5 40 L 68.5 34 L 81.5 31 Z " /><path fill="rgb(247,250,253)" stroke="rgb(247,250,253)" stroke-width="1" opacity="0.9568627450980393" d="M 166.5 31 L 167 33.5 L 166 33.5 L 166.5 31 Z " /><path fill="rgb(247,250,253)" stroke="rgb(247,250,253)" stroke-width="1" opacity="0.9568627450980393" d="M 5.5 141 L 6.5 143 L 5.5 141 Z " /><path fill="rgb(247,250,253)" stroke="rgb(247,250,253)" stroke-width="1" opacity="0.9568627450980393" d="M 7.5 144 L 8.5 146 L 7.5 144 Z " /><path fill="rgb(247,250,253)" stroke="rgb(247,250,253)" stroke-width="1" opacity="0.9568627450980393" d="M 160.5 144 L 159.5 146 L 160.5 144 Z " /><path fill="rgb(247,250,253)" stroke="rgb(247,250,253)" stroke-width="1" opacity="0.9568627450980393" d="M 9.5 147 L 14.5 153 L 9.5 147 Z " /><path fill="rgb(247,250,253)" stroke="rgb(247,250,253)" stroke-width="1" opacity="0.9568627450980393" d="M 157.5 148 L 152.5 154 L 157.5 148 Z " /><path fill="rgb(247,250,253)" stroke="rgb(247,250,253)" stroke-width="1" opacity="0.9568627450980393" d="M 17.5 154 L 18.5 156 L 17.5 154 Z " /><path fill="rgb(247,250,253)" stroke="rgb(247,250,253)" stroke-width="1" opacity="0.9568627450980393" d="M 150.5 154 L 149.5 156 L 150.5 154 Z " /><path fill="rgb(247,250,253)" stroke="rgb(247,250,253)" stroke-width="1" opacity="0.9568627450980393" d="M 147.5 156 L 146.5 158 L 147.5 156 Z " /><path fill="rgb(164,198,242)" stroke="rgb(164,198,242)" stroke-width="1" opacity="0.8352941176470589" d="M 34.5 0 L 39 0.5 L 34.5 1 L 34.5 0 Z " /><path fill="rgb(164,198,242)" stroke="rgb(164,198,242)" stroke-width="1" opacity="0.8352941176470589" d="M 129.5 0 L 134 0.5 L 129.5 1 L 129.5 0 Z " /><path fill="rgb(164,198,242)" stroke="rgb(164,198,242)" stroke-width="1" opacity="0.8352941176470589" d="M 24.5 3 L 26 3.5 L 21.5 6 L 22.5 4 L 24.5 3 Z " /><path fill="rgb(164,198,242)" stroke="rgb(164,198,242)" stroke-width="1" opacity="0.8352941176470589" d="M 144.5 4 L 147 5.5 L 145.5 5 L 144.5 4 Z " /><path fill="rgb(164,198,242)" stroke="rgb(164,198,242)" stroke-width="1" opacity="0.8352941176470589" d="M 19.5 6 L 18.5 8 L 19.5 6 Z " /><path fill="rgb(164,198,242)" stroke="rgb(164,198,242)" stroke-width="1" opacity="0.8352941176470589" d="M 148.5 6 L 149.5 8 L 148.5 6 Z " /><path fill="rgb(164,198,242)" stroke="rgb(164,198,242)" stroke-width="1" opacity="0.8352941176470589" d="M 16.5 8 L 9.5 16 L 16.5 8 Z " /><path fill="rgb(164,198,242)" stroke="rgb(164,198,242)" stroke-width="1" opacity="0.8352941176470589" d="M 151.5 8 L 158.5 16 L 151.5 8 Z " /><path fill="rgb(164,198,242)" stroke="rgb(164,198,242)" stroke-width="1" opacity="0.8352941176470589" d="M 8.5 17 L 7.5 19 L 8.5 17 Z " /><path fill="rgb(164,198,242)" stroke="rgb(164,198,242)" stroke-width="1" opacity="0.8352941176470589" d="M 159.5 17 L 160.5 19 L 159.5 17 Z " /><path fill="rgb(164,198,242)" stroke="rgb(164,198,242)" stroke-width="1" opacity="0.8352941176470589" d="M 6.5 20 L 6 21.5 L 5.5 23 L 5 21.5 L 6.5 20 Z " /><path fill="rgb(164,198,242)" stroke="rgb(164,198,242)" stroke-width="1" opacity="0.8352941176470589" d="M 161.5 20 L 164 24.5 L 163 24.5 L 161.5 20 Z " /><path fill="rgb(164,198,242)" stroke="rgb(164,198,242)" stroke-width="1" opacity="0.8352941176470589" d="M 1.5 33 L 2 37.5 L 1 37.5 L 1.5 33 Z " /><path fill="rgb(164,198,242)" stroke="rgb(164,198,242)" stroke-width="1" opacity="0.8352941176470589" d="M 166.5 34 L 167 37.5 L 166 37.5 L 166.5 34 Z " /><path fill="rgb(164,198,242)" stroke="rgb(164,198,242)" stroke-width="1" opacity="0.8352941176470589" d="M 1.5 124 L 2 128.5 L 1 128.5 L 1.5 124 Z " /><path fill="rgb(164,198,242)" stroke="rgb(164,198,242)" stroke-width="1" opacity="0.8352941176470589" d="M 166.5 124 L 167 128.5 L 166 128.5 L 166.5 124 Z " /><path fill="rgb(164,198,242)" stroke="rgb(164,198,242)" stroke-width="1" opacity="0.8352941176470589" d="M 4.5 137 L 7 141.5 L 5 140.5 L 4.5 137 Z " /><path fill="rgb(164,198,242)" stroke="rgb(164,198,242)" stroke-width="1" opacity="0.8352941176470589" d="M 162.5 139 L 163 140.5 L 161 141.5 L 162.5 139 Z " /><path fill="rgb(164,198,242)" stroke="rgb(164,198,242)" stroke-width="1" opacity="0.8352941176470589" d="M 7.5 143 L 8.5 145 L 7.5 143 Z " /><path fill="rgb(164,198,242)" stroke="rgb(164,198,242)" stroke-width="1" opacity="0.8352941176470589" d="M 160.5 143 L 159.5 145 L 160.5 143 Z " /><path fill="rgb(164,198,242)" stroke="rgb(164,198,242)" stroke-width="1" opacity="0.8352941176470589" d="M 9.5 146 L 16.5 154 L 9.5 146 Z " /><path fill="rgb(164,198,242)" stroke="rgb(164,198,242)" stroke-width="1" opacity="0.8352941176470589" d="M 158.5 146 L 151.5 154 L 158.5 146 Z " /><path fill="rgb(164,198,242)" stroke="rgb(164,198,242)" stroke-width="1" opacity="0.8352941176470589" d="M 18.5 154 L 19.5 156 L 18.5 154 Z " /><path fill="rgb(164,198,242)" stroke="rgb(164,198,242)" stroke-width="1" opacity="0.8352941176470589" d="M 149.5 154 L 148.5 156 L 149.5 154 Z " /><path fill="rgb(164,198,242)" stroke="rgb(164,198,242)" stroke-width="1" opacity="0.8352941176470589" d="M 21.5 156 L 24 157.5 L 22.5 158 L 21.5 156 Z " /><path fill="rgb(164,198,242)" stroke="rgb(164,198,242)" stroke-width="1" opacity="0.8352941176470589" d="M 146.5 156 L 145.5 158 L 142.5 159 L 142.5 158 L 146.5 156 Z " /><path fill="rgb(164,198,242)" stroke="rgb(164,198,242)" stroke-width="1" opacity="0.8352941176470589" d="M 34.5 161 L 39 161.5 L 34.5 162 L 34.5 161 Z " /><path fill="rgb(164,198,242)" stroke="rgb(164,198,242)" stroke-width="1" opacity="0.8352941176470589" d="M 129.5 161 L 134 161.5 L 129.5 162 L 129.5 161 Z " /><path fill="rgb(0,0,0)" stroke="rgb(0,0,0)" stroke-width="1" opacity="0" d="M 0 0 L 32 0.5 Q 17.5 3.5 10 13.5 Q 3.5 20.5 1 31.5 L 1 130.5 Q 4.4 145.1 14.5 153 Q 21 159.5 32 161.5 L 0 162 L 0 0 Z " /><path fill="rgb(0,0,0)" stroke="rgb(0,0,0)" stroke-width="1" opacity="0" d="M 136.5 0 L 167 0 L 167 30.5 L 166 30.5 Q 163.5 16 153.5 9 L 144.5 3 L 136.5 1 L 136.5 0 Z " /><path fill="rgb(0,0,0)" stroke="rgb(0,0,0)" stroke-width="1" opacity="0" d="M 166.5 131 L 167 162 L 136 161.5 Q 150.5 158.5 158 148.5 Q 164.5 142 166.5 131 Z " /><path fill="rgb(164,198,242)" stroke="rgb(164,198,242)" stroke-width="1" opacity="0.8392156862745098" d="M 39.5 0 L 128.5 0 L 139.5 2 L 147.5 6 L 159 16.5 L 164 25.5 L 167 38.5 L 167 123.5 L 165 134.5 L 161 142.5 L 150.5 154 L 141.5 159 L 128.5 162 L 39.5 162 L 28.5 160 L 20.5 156 L 9 145.5 L 4 136.5 L 1 123.5 L 1 38.5 L 3 27.5 L 7 19.5 L 17.5 8 L 26.5 3 L 39.5 0 Z M 82 31 L 69 34 L 59 40 L 48 52 L 43 64 L 41 73 Q 39 101 52 116 Q 61 127 78 130 L 95 130 L 100 129 L 116 120 Q 123 114 126 104 L 122 101 L 110 98 L 107 103 Q 102 111 91 113 L 83 113 L 72 109 Q 64 104 61 95 L 60 84 L 59 83 L 61 68 L 65 60 Q 70 52 81 49 Q 97 47 104 55 L 108 63 L 113 63 L 126 59 L 126 57 L 120 47 Q 109 30 82 31 Z " /></svg>